<svg id="svg" version="1.1" xmlns="http://www.w3.org/2000/svg" xmlns:xlink="http://www.w3.org/1999/xlink" width="400" height="400" viewBox="0, 0, 400,400"><g id="svgg"><path id="path0" d="M104.802 58.440 C 97.552 59.859,95.720 61.675,76.390 86.600 C 69.053 96.060,61.478 105.826,59.556 108.302 C 55.402 113.652,54.696 115.274,55.966 116.544 L 56.822 117.400 163.311 117.613 C 280.367 117.847,271.724 117.657,280.612 120.203 C 313.714 129.685,314.692 168.026,282.113 179.050 C 273.586 181.936,280.602 181.727,183.400 181.983 C 121.513 182.147,95.848 182.341,94.989 182.653 C 87.603 185.336,86.428 187.251,73.915 217.000 C 62.792 243.446,62.203 244.841,45.294 284.800 C 29.719 321.609,29.137 323.200,31.238 323.200 C 32.801 323.200,34.571 321.509,70.800 285.395 C 90.710 265.549,107.810 248.770,108.800 248.109 C 112.697 245.508,116.461 244.011,121.908 242.899 C 124.629 242.343,133.803 242.236,198.400 242.001 C 282.197 241.697,281.859 241.710,299.115 238.166 C 354.932 226.700,388.787 182.398,378.974 133.661 C 370.473 91.441,331.753 62.471,278.400 58.413 C 271.678 57.901,107.421 57.927,104.802 58.440 M94.600 290.549 C 91.622 291.893,91.813 290.251,91.691 315.569 L 91.581 338.254 92.498 339.614 C 95.410 343.936,99.123 341.445,99.635 334.826 C 100.370 325.347,102.901 322.986,113.002 322.361 C 124.821 321.629,130.957 317.037,132.492 307.775 C 133.908 299.228,129.188 292.832,120.131 291.025 C 116.038 290.208,96.177 289.838,94.600 290.549 M154.533 290.267 C 150.898 291.020,150.755 292.070,150.887 316.892 C 151.014 340.882,150.951 340.387,154.020 341.501 C 156.079 342.249,182.225 341.763,183.500 340.953 C 186.481 339.059,183.937 338.118,175.200 337.881 C 162.605 337.540,159.200 335.169,159.200 326.741 C 159.200 318.812,163.566 315.607,174.384 315.594 C 179.578 315.588,181.276 315.189,181.521 313.917 C 181.764 312.654,180.007 312.242,173.391 312.011 C 163.291 311.659,159.800 309.344,159.800 303.000 C 159.800 296.346,163.182 294.312,174.800 293.976 C 179.090 293.852,182.915 293.608,183.300 293.433 C 184.330 292.964,184.198 291.253,183.100 290.846 C 182.145 290.492,156.005 289.962,154.533 290.267 M208.468 290.367 C 201.467 290.762,201.072 293.224,207.882 294.020 C 212.054 294.508,213.826 295.146,215.778 296.864 C 219.004 299.704,218.957 299.380,219.192 320.200 C 219.382 337.049,219.461 338.689,220.119 339.660 C 221.677 341.953,224.536 342.041,226.176 339.846 C 226.972 338.780,227.007 338.132,227.206 320.472 C 227.409 302.465,227.425 302.170,228.335 300.147 C 229.972 296.507,232.950 294.596,237.663 294.162 C 242.283 293.735,243.751 292.907,242.622 291.363 C 241.753 290.174,222.080 289.600,208.468 290.367 M265.180 290.632 C 262.127 291.900,262.213 291.227,262.092 314.800 C 261.961 340.081,262.253 341.955,266.167 340.972 C 268.525 340.381,268.795 339.176,268.813 329.200 C 268.840 313.605,269.551 309.674,272.604 308.225 C 276.598 306.330,278.964 308.760,288.995 325.059 C 298.567 340.614,299.438 341.600,303.607 341.600 C 308.667 341.600,308.580 342.024,308.713 316.772 C 308.835 293.606,308.789 293.010,306.741 291.491 C 303.478 289.070,302.005 292.017,301.988 301.000 C 301.966 312.423,301.170 315.895,298.236 317.352 C 294.477 319.218,291.813 316.710,283.264 303.256 C 274.990 290.236,271.683 287.928,265.180 290.632 M116.472 295.532 C 128.980 301.535,124.086 318.426,109.800 318.561 C 102.795 318.628,99.818 315.001,99.818 306.400 C 99.818 295.550,106.893 290.933,116.472 295.532 " stroke="none" fill="#1a425b" fill-rule="evenodd"></path><path id="path1" d="M0.000 200.000 L 0.000 400.000 200.000 400.000 L 400.000 400.000 400.000 200.000 L 400.000 0.000 200.000 0.000 L 0.000 0.000 0.000 200.000 M277.400 51.616 C 341.043 55.899,385.798 94.922,387.093 147.262 C 388.380 199.222,347.289 240.076,286.800 246.977 C 275.169 248.303,269.760 248.397,203.800 248.409 C 128.659 248.422,125.356 248.517,118.124 250.850 C 113.058 252.485,112.463 253.037,69.200 296.231 C 46.430 318.964,27.080 338.130,26.200 338.821 C 21.661 342.386,17.969 342.186,17.345 338.341 C 16.801 334.985,17.252 333.807,36.101 289.400 C 42.824 273.560,54.917 244.940,62.974 225.800 C 80.332 184.563,81.898 181.684,89.030 177.903 C 94.091 175.219,86.488 175.437,183.400 175.191 L 271.000 174.969 274.928 174.070 C 310.842 165.857,306.289 128.436,268.933 124.803 C 266.546 124.571,223.385 124.417,159.120 124.410 C 83.675 124.403,52.650 124.274,51.188 123.960 C 46.115 122.872,44.418 118.350,47.304 113.612 C 50.001 109.183,85.725 63.845,89.390 60.200 C 94.757 54.861,98.745 52.602,104.499 51.644 C 107.523 51.140,269.937 51.114,277.400 51.616 M116.749 283.609 C 131.836 285.198,140.205 293.647,139.505 306.580 C 138.831 319.022,129.402 327.800,115.189 329.218 C 107.567 329.978,106.869 330.583,106.336 336.893 C 105.580 345.823,102.957 348.625,95.400 348.574 C 89.868 348.537,86.667 346.477,85.352 342.107 C 84.640 339.742,84.535 292.606,85.235 289.825 C 86.085 286.452,88.621 284.289,92.481 283.646 C 95.427 283.156,112.204 283.130,116.749 283.609 M185.318 283.584 C 186.593 283.793,188.888 284.602,190.418 285.382 C 193.813 287.112,193.509 287.112,197.008 285.383 C 201.307 283.259,202.909 283.139,225.053 283.276 L 245.000 283.400 247.103 284.351 C 249.377 285.378,251.133 287.116,252.392 289.584 C 253.559 291.871,253.800 291.850,255.534 289.310 C 258.878 284.411,260.935 283.440,268.000 283.421 C 277.201 283.397,279.053 284.618,286.210 295.423 C 293.490 306.415,294.572 306.481,295.206 295.967 C 295.766 286.663,298.180 283.630,305.040 283.609 C 309.954 283.594,312.618 285.067,314.348 288.757 L 315.400 291.000 315.400 315.600 C 315.400 343.353,315.434 342.987,312.611 345.811 C 310.603 347.818,308.145 348.608,304.000 348.578 C 296.873 348.527,294.549 346.594,287.011 334.447 C 277.043 318.384,276.159 318.303,275.645 333.400 C 275.231 345.558,273.369 348.400,265.814 348.400 C 255.933 348.400,255.208 346.316,255.203 317.920 C 255.199 293.983,255.000 292.970,251.090 296.946 C 248.223 299.861,246.472 300.597,241.400 301.021 C 233.947 301.643,234.247 300.744,234.000 323.230 L 233.800 341.459 232.591 343.821 C 229.833 349.212,220.155 350.486,215.448 346.079 C 212.625 343.435,212.622 343.413,212.400 323.000 C 212.155 300.424,212.671 301.907,204.744 300.994 C 201.021 300.564,199.823 300.244,197.445 299.038 C 193.864 297.223,193.758 297.228,189.408 299.408 C 185.434 301.400,182.106 301.979,174.549 301.993 C 171.956 301.998,170.766 302.159,170.444 302.547 C 169.460 303.733,171.054 304.165,177.346 304.417 C 187.142 304.810,190.815 307.381,190.791 313.826 C 190.767 320.484,187.796 322.342,176.515 322.755 C 168.257 323.057,167.330 323.375,166.628 326.146 C 165.775 329.510,168.065 330.784,175.000 330.801 C 190.160 330.839,195.110 334.105,192.771 342.528 C 191.218 348.123,189.365 348.600,169.200 348.600 C 142.424 348.600,144.470 351.264,144.310 316.200 C 144.149 280.982,142.417 283.331,168.600 283.249 C 176.520 283.225,184.043 283.375,185.318 283.584 M108.885 301.803 C 106.002 303.055,105.637 308.621,108.304 310.646 C 109.242 311.358,112.174 311.337,113.585 310.608 C 119.504 307.547,115.017 299.138,108.885 301.803 " stroke="none" fill="#fbfbfb" fill-rule="evenodd"></path><path id="path2" d="M105.928 55.246 C 96.570 56.452,94.497 58.442,70.807 88.954 C 49.220 116.757,49.831 115.842,51.168 118.341 C 52.475 120.782,43.269 120.577,162.800 120.825 C 222.530 120.948,271.940 121.185,272.600 121.350 C 273.260 121.515,274.700 121.834,275.800 122.058 C 309.423 128.911,312.817 165.844,280.789 176.350 C 273.666 178.686,280.124 178.522,184.600 178.788 C 89.628 179.052,95.285 178.915,91.080 181.050 C 85.283 183.993,82.984 187.686,74.775 207.248 C 65.062 230.392,52.411 260.372,40.107 289.400 C 23.050 329.641,22.281 331.801,24.726 332.576 C 27.094 333.328,27.032 333.386,72.206 288.178 C 110.508 249.848,110.299 250.040,115.935 247.764 C 123.101 244.869,125.000 244.803,201.000 244.795 C 264.257 244.788,272.595 244.666,283.800 243.582 C 343.689 237.788,385.079 197.764,383.469 147.200 C 381.832 95.772,337.709 58.526,274.483 55.201 C 265.233 54.714,109.728 54.756,105.928 55.246 M278.800 56.013 C 331.395 60.014,371.101 88.911,380.733 130.200 C 393.907 186.671,350.718 236.663,283.299 242.981 C 279.835 243.305,276.100 243.678,275.000 243.809 C 273.900 243.939,239.700 244.183,199.000 244.351 C 116.735 244.689,122.233 244.495,115.348 247.304 C 110.157 249.422,108.758 250.721,72.200 287.335 C 33.139 326.455,30.129 329.379,27.838 330.419 C 22.901 332.659,23.728 329.566,35.484 301.819 C 49.528 268.672,60.563 242.546,69.196 222.000 C 73.865 210.890,78.486 199.910,79.466 197.600 C 83.802 187.377,87.638 182.811,93.800 180.538 C 95.714 179.832,99.530 179.791,183.000 179.592 C 265.420 179.395,270.408 179.344,274.000 178.650 C 312.880 171.146,313.897 129.548,275.400 121.360 C 269.668 120.141,259.218 120.021,157.800 120.010 C 43.750 119.998,52.767 120.211,51.829 117.504 C 51.130 115.491,52.740 113.141,70.600 90.103 C 93.467 60.606,96.509 57.524,104.200 56.068 C 107.041 55.530,271.770 55.478,278.800 56.013 M95.354 287.189 C 92.358 287.531,90.332 288.717,89.343 290.706 C 88.129 293.147,88.202 339.027,89.423 341.400 C 91.593 345.618,98.317 345.943,101.280 341.974 C 101.955 341.069,102.136 340.065,103.048 332.129 C 103.531 327.931,106.281 326.200,113.404 325.612 C 128.222 324.390,136.191 316.603,135.503 304.019 C 135.057 295.849,129.977 290.084,121.400 288.014 C 117.367 287.041,101.148 286.527,95.354 287.189 M154.733 287.177 C 147.970 288.103,148.200 287.087,148.200 316.000 C 148.200 343.518,148.011 341.972,151.620 344.000 L 153.400 345.000 168.600 345.000 C 187.285 345.000,188.800 344.610,188.800 339.800 C 188.800 335.755,186.700 334.912,176.000 334.661 C 165.066 334.405,162.400 332.864,162.400 326.800 C 162.400 320.874,165.155 319.203,175.400 318.913 C 184.239 318.663,186.806 317.498,186.799 313.740 C 186.791 310.242,184.141 309.090,175.400 308.787 C 165.775 308.453,163.200 307.232,163.200 303.000 C 163.200 298.615,165.654 297.557,176.600 297.222 C 185.904 296.937,186.934 296.681,188.437 294.281 C 189.924 291.905,188.706 289.065,185.600 287.666 C 184.035 286.961,159.186 286.567,154.733 287.177 M204.362 287.177 C 194.757 288.481,196.844 296.565,207.000 297.391 C 215.968 298.120,216.103 298.474,216.383 322.000 C 216.577 338.241,216.674 340.336,217.292 341.465 C 219.367 345.257,224.914 345.982,228.026 342.867 C 230.267 340.624,230.400 339.396,230.402 320.880 C 230.405 298.477,230.526 298.188,240.271 297.258 C 248.347 296.487,250.826 290.359,244.200 287.543 C 242.827 286.960,208.301 286.643,204.362 287.177 M262.794 288.100 C 259.222 289.910,259.400 288.450,259.400 316.000 C 259.400 339.620,259.420 340.233,260.214 341.586 C 262.580 345.613,268.745 345.506,270.926 341.400 C 271.715 339.913,271.792 339.006,272.003 328.600 C 272.247 316.535,272.686 314.071,274.707 313.429 C 277.380 312.581,279.067 314.637,289.297 331.207 C 292.083 335.720,295.002 340.159,295.783 341.071 C 300.034 346.038,308.228 346.109,310.710 341.200 L 311.620 339.400 311.510 315.600 C 311.382 287.880,311.512 288.633,306.690 287.625 C 300.913 286.418,299.181 289.272,298.821 300.600 C 298.304 316.813,295.515 316.758,285.003 300.324 C 277.293 288.271,275.939 287.200,268.414 287.200 C 265.220 287.200,264.269 287.352,262.794 288.100 M121.668 288.719 C 130.992 291.248,135.965 298.121,134.999 307.143 C 133.855 317.833,126.767 323.743,113.568 325.011 C 104.133 325.917,102.680 327.256,101.994 335.675 C 101.467 342.158,100.046 343.996,95.559 343.999 C 92.807 344.000,90.961 342.910,89.800 340.595 C 89.028 339.056,89.000 338.202,89.000 316.200 C 89.000 289.360,88.923 289.845,93.462 288.161 C 96.070 287.194,117.615 287.619,121.668 288.719 M185.893 288.507 C 188.430 289.893,189.014 292.939,187.079 294.700 C 185.202 296.408,184.441 296.549,175.800 296.780 C 164.707 297.076,162.600 298.069,162.600 303.000 C 162.600 307.726,164.781 308.881,174.400 309.249 C 184.037 309.618,186.541 310.789,185.828 314.594 C 185.281 317.508,183.577 318.103,174.949 318.396 C 164.265 318.758,161.779 320.397,161.816 327.053 C 161.852 333.519,164.218 334.880,176.000 335.207 C 187.006 335.514,189.576 336.794,187.921 341.145 C 186.765 344.180,186.639 344.200,168.800 344.200 C 146.292 344.200,148.600 347.443,148.600 315.813 C 148.600 288.357,148.437 289.231,153.800 287.877 C 156.256 287.257,184.625 287.814,185.893 288.507 M244.693 288.507 C 249.338 291.045,247.295 295.745,241.225 296.486 C 229.584 297.906,229.867 297.295,229.600 321.600 C 229.355 343.852,229.233 344.259,222.904 343.903 C 217.040 343.573,216.840 342.842,216.818 321.720 C 216.793 298.402,216.535 297.739,207.124 296.773 C 202.418 296.290,200.622 295.590,199.747 293.897 C 198.516 291.518,199.672 289.257,202.674 288.172 C 205.239 287.245,242.933 287.545,244.693 288.507 M275.144 289.008 C 277.805 290.456,278.867 291.789,284.801 301.119 C 295.968 318.681,299.563 318.021,299.606 298.400 C 299.615 293.972,299.754 292.700,300.375 291.331 C 302.289 287.117,307.950 286.899,310.120 290.955 C 311.461 293.461,311.510 338.429,310.174 340.974 C 307.867 345.373,300.114 345.277,296.301 340.803 C 295.585 339.963,291.820 334.174,287.932 327.938 C 278.840 313.352,277.054 311.315,274.280 312.369 C 272.008 313.233,271.610 315.464,271.266 329.295 C 271.010 339.590,270.934 340.431,270.167 341.477 C 267.609 344.964,262.867 344.608,260.600 340.758 C 259.596 339.054,259.332 294.718,260.309 291.966 C 261.843 287.646,269.746 286.070,275.144 289.008 M106.593 297.357 C 102.924 298.956,101.139 304.377,102.432 309.992 C 104.715 319.898,120.925 316.583,120.975 306.200 C 121.007 299.715,112.784 294.659,106.593 297.357 M115.585 298.728 C 124.746 303.266,120.053 315.806,109.446 315.131 C 104.567 314.820,103.000 312.697,103.000 306.400 C 103.000 298.150,108.118 295.030,115.585 298.728 " stroke="none" fill="#7c8c9c" fill-rule="evenodd"></path><path id="path3" d="M104.200 56.068 C 96.509 57.524,93.467 60.606,70.600 90.103 C 52.740 113.141,51.130 115.491,51.829 117.504 C 52.767 120.211,43.750 119.998,157.800 120.010 C 259.218 120.021,269.668 120.141,275.400 121.360 C 313.897 129.548,312.880 171.146,274.000 178.650 C 270.408 179.344,265.420 179.395,183.000 179.592 C 99.530 179.791,95.714 179.832,93.800 180.538 C 87.638 182.811,83.802 187.377,79.466 197.600 C 78.486 199.910,73.865 210.890,69.196 222.000 C 60.563 242.546,49.528 268.672,35.484 301.819 C 23.728 329.566,22.901 332.659,27.838 330.419 C 30.129 329.379,33.139 326.455,72.200 287.335 C 108.758 250.721,110.157 249.422,115.348 247.304 C 122.233 244.495,116.735 244.689,199.000 244.351 C 239.700 244.183,273.900 243.939,275.000 243.809 C 276.100 243.678,279.835 243.305,283.299 242.981 C 350.718 236.663,393.907 186.671,380.733 130.200 C 371.101 88.911,331.395 60.014,278.800 56.013 C 271.770 55.478,107.041 55.530,104.200 56.068 M278.400 58.413 C 331.753 62.471,370.473 91.441,378.974 133.661 C 388.787 182.398,354.932 226.700,299.115 238.166 C 281.859 241.710,282.197 241.697,198.400 242.001 C 133.803 242.236,124.629 242.343,121.908 242.899 C 116.461 244.011,112.697 245.508,108.800 248.109 C 107.810 248.770,90.710 265.549,70.800 285.395 C 34.571 321.509,32.801 323.200,31.238 323.200 C 29.137 323.200,29.719 321.609,45.294 284.800 C 62.203 244.841,62.792 243.446,73.915 217.000 C 86.428 187.251,87.603 185.336,94.989 182.653 C 95.848 182.341,121.513 182.147,183.400 181.983 C 280.602 181.727,273.586 181.936,282.113 179.050 C 314.692 168.026,313.714 129.685,280.612 120.203 C 271.724 117.657,280.367 117.847,163.311 117.613 L 56.822 117.400 55.966 116.544 C 54.696 115.274,55.402 113.652,59.556 108.302 C 61.478 105.826,69.053 96.060,76.390 86.600 C 95.720 61.675,97.552 59.859,104.802 58.440 C 107.421 57.927,271.678 57.901,278.400 58.413 M93.462 288.161 C 88.923 289.845,89.000 289.360,89.000 316.200 C 89.000 338.202,89.028 339.056,89.800 340.595 C 90.961 342.910,92.807 344.000,95.559 343.999 C 100.046 343.996,101.467 342.158,101.994 335.675 C 102.680 327.256,104.133 325.917,113.568 325.011 C 126.767 323.743,133.855 317.833,134.999 307.143 C 135.965 298.121,130.992 291.248,121.668 288.719 C 117.615 287.619,96.070 287.194,93.462 288.161 M153.800 287.877 C 148.437 289.231,148.600 288.357,148.600 315.813 C 148.600 347.443,146.292 344.200,168.800 344.200 C 186.639 344.200,186.765 344.180,187.921 341.145 C 189.576 336.794,187.006 335.514,176.000 335.207 C 164.218 334.880,161.852 333.519,161.816 327.053 C 161.779 320.397,164.265 318.758,174.949 318.396 C 183.577 318.103,185.281 317.508,185.828 314.594 C 186.541 310.789,184.037 309.618,174.400 309.249 C 164.781 308.881,162.600 307.726,162.600 303.000 C 162.600 298.069,164.707 297.076,175.800 296.780 C 184.441 296.549,185.202 296.408,187.079 294.700 C 189.014 292.939,188.430 289.893,185.893 288.507 C 184.625 287.814,156.256 287.257,153.800 287.877 M202.674 288.172 C 199.672 289.257,198.516 291.518,199.747 293.897 C 200.622 295.590,202.418 296.290,207.124 296.773 C 216.535 297.739,216.793 298.402,216.818 321.720 C 216.840 342.842,217.040 343.573,222.904 343.903 C 229.233 344.259,229.355 343.852,229.600 321.600 C 229.867 297.295,229.584 297.906,241.225 296.486 C 247.295 295.745,249.338 291.045,244.693 288.507 C 242.933 287.545,205.239 287.245,202.674 288.172 M264.400 288.042 C 262.591 288.586,260.951 290.159,260.309 291.966 C 259.332 294.718,259.596 339.054,260.600 340.758 C 262.867 344.608,267.609 344.964,270.167 341.477 C 270.934 340.431,271.010 339.590,271.266 329.295 C 271.610 315.464,272.008 313.233,274.280 312.369 C 277.054 311.315,278.840 313.352,287.932 327.938 C 291.820 334.174,295.585 339.963,296.301 340.803 C 300.114 345.277,307.867 345.373,310.174 340.974 C 311.510 338.429,311.461 293.461,310.120 290.955 C 307.950 286.899,302.289 287.117,300.375 291.331 C 299.754 292.700,299.615 293.972,299.606 298.400 C 299.563 318.021,295.968 318.681,284.801 301.119 C 278.867 291.789,277.805 290.456,275.144 289.008 C 272.818 287.742,267.107 287.229,264.400 288.042 M120.131 291.025 C 129.188 292.832,133.908 299.228,132.492 307.775 C 130.957 317.037,124.821 321.629,113.002 322.361 C 102.901 322.986,100.370 325.347,99.635 334.826 C 99.123 341.445,95.410 343.936,92.498 339.614 L 91.581 338.254 91.691 315.569 C 91.813 290.251,91.622 291.893,94.600 290.549 C 96.177 289.838,116.038 290.208,120.131 291.025 M183.100 290.846 C 184.198 291.253,184.330 292.964,183.300 293.433 C 182.915 293.608,179.090 293.852,174.800 293.976 C 163.182 294.312,159.800 296.346,159.800 303.000 C 159.800 309.344,163.291 311.659,173.391 312.011 C 180.007 312.242,181.764 312.654,181.521 313.917 C 181.276 315.189,179.578 315.588,174.384 315.594 C 163.566 315.607,159.200 318.812,159.200 326.741 C 159.200 335.169,162.605 337.540,175.200 337.881 C 182.766 338.086,184.400 338.427,184.400 339.800 C 184.400 341.347,183.070 341.517,169.000 341.764 C 148.919 342.117,151.036 345.024,150.887 316.892 C 150.755 292.070,150.898 291.020,154.533 290.267 C 156.005 289.962,182.145 290.492,183.100 290.846 M237.550 290.352 C 245.239 290.853,245.316 293.456,237.663 294.162 C 232.950 294.596,229.972 296.507,228.335 300.147 C 227.425 302.170,227.409 302.465,227.206 320.472 C 227.007 338.132,226.972 338.780,226.176 339.846 C 224.536 342.041,221.677 341.953,220.119 339.660 C 219.461 338.689,219.382 337.049,219.192 320.200 C 218.957 299.380,219.004 299.704,215.778 296.864 C 213.826 295.146,212.054 294.508,207.882 294.020 C 203.600 293.519,202.655 292.899,203.795 291.339 C 204.636 290.189,225.626 289.576,237.550 290.352 M272.199 290.442 C 275.188 291.194,276.743 292.995,283.264 303.256 C 291.813 316.710,294.477 319.218,298.236 317.352 C 301.170 315.895,301.966 312.423,301.988 301.000 C 302.005 292.017,303.478 289.070,306.741 291.491 C 308.789 293.010,308.835 293.606,308.713 316.772 C 308.580 342.024,308.667 341.600,303.607 341.600 C 299.438 341.600,298.567 340.614,288.995 325.059 C 278.964 308.760,276.598 306.330,272.604 308.225 C 269.551 309.674,268.840 313.605,268.813 329.200 C 268.799 337.323,268.723 338.321,268.037 339.447 C 266.354 342.207,263.412 341.312,262.492 337.761 C 261.554 334.143,261.985 294.155,262.980 292.511 C 264.341 290.260,268.115 289.413,272.199 290.442 M105.400 294.722 C 100.607 296.977,98.223 305.239,100.326 312.305 C 103.745 323.791,123.600 318.583,123.600 306.200 C 123.600 297.935,112.906 291.191,105.400 294.722 M113.671 297.213 C 122.679 299.715,123.623 311.028,115.137 314.781 C 106.492 318.603,100.302 312.757,102.440 302.788 C 103.471 297.980,108.121 295.672,113.671 297.213 " stroke="none" fill="#748494" fill-rule="evenodd"></path><path id="path4" d="M105.419 54.445 C 96.056 55.809,93.756 58.038,69.566 89.200 C 48.733 116.039,48.415 116.530,50.224 119.113 C 51.961 121.593,42.352 121.378,162.200 121.622 C 281.945 121.865,273.107 121.672,280.685 124.216 C 310.891 134.356,308.834 168.635,277.558 176.347 C 270.925 177.983,269.989 178.000,184.810 178.010 C 100.573 178.021,96.319 178.093,92.340 179.582 C 86.916 181.611,82.255 187.396,78.068 197.292 C 76.740 200.431,70.351 215.600,63.870 231.000 C 57.389 246.400,46.289 272.680,39.204 289.400 C 32.118 306.120,25.601 321.600,24.721 323.800 C 20.616 334.063,21.722 337.366,27.800 332.994 C 29.120 332.045,47.390 314.051,68.400 293.007 C 111.650 249.687,111.152 250.144,117.466 248.037 C 124.253 245.773,120.986 245.868,201.600 245.593 C 281.518 245.321,279.590 245.372,293.200 243.185 C 347.716 234.424,384.384 196.870,384.384 149.800 C 384.384 97.355,339.915 58.292,275.800 54.419 C 267.431 53.913,108.901 53.937,105.419 54.445 M274.483 55.201 C 337.709 58.526,381.832 95.772,383.469 147.200 C 385.079 197.764,343.689 237.788,283.800 243.582 C 272.595 244.666,264.257 244.788,201.000 244.795 C 125.000 244.803,123.101 244.869,115.935 247.764 C 110.299 250.040,110.508 249.848,72.206 288.178 C 27.032 333.386,27.094 333.328,24.726 332.576 C 22.281 331.801,23.050 329.641,40.107 289.400 C 52.411 260.372,65.062 230.392,74.775 207.248 C 82.984 187.686,85.283 183.993,91.080 181.050 C 95.285 178.915,89.628 179.052,184.600 178.788 C 280.124 178.522,273.666 178.686,280.789 176.350 C 312.817 165.844,309.423 128.911,275.800 122.058 C 274.700 121.834,273.260 121.515,272.600 121.350 C 271.940 121.185,222.530 120.948,162.800 120.825 C 43.269 120.577,52.475 120.782,51.168 118.341 C 49.831 115.842,49.220 116.757,70.807 88.954 C 94.497 58.442,96.570 56.452,105.928 55.246 C 109.728 54.756,265.233 54.714,274.483 55.201 M94.572 286.397 C 87.598 287.421,87.600 287.412,87.600 316.000 C 87.600 343.236,87.578 343.095,92.093 344.981 C 98.360 347.600,102.598 344.374,103.420 336.360 C 104.247 328.292,105.450 327.156,113.952 326.416 C 127.936 325.199,135.793 318.078,136.311 306.152 C 136.731 296.487,131.753 289.874,122.200 287.404 C 117.447 286.175,100.335 285.552,94.572 286.397 M154.600 286.269 C 147.138 287.384,147.204 287.118,147.204 316.000 C 147.204 348.565,145.201 345.800,168.800 345.800 C 187.808 345.800,189.214 345.442,189.886 340.437 C 190.542 335.545,188.128 334.301,177.285 333.942 C 165.913 333.566,163.689 332.544,163.308 327.517 C 162.879 321.849,165.199 320.356,175.087 319.934 C 185.123 319.505,187.597 318.292,187.597 313.800 C 187.597 309.431,185.369 308.332,175.794 307.978 C 166.274 307.627,164.400 306.792,164.400 302.902 C 164.400 299.240,166.611 298.402,177.176 298.060 C 186.700 297.752,187.891 297.404,189.541 294.447 C 191.162 291.540,189.839 288.479,186.301 286.955 C 184.651 286.244,158.546 285.679,154.600 286.269 M203.492 286.403 C 197.197 287.502,195.110 293.411,199.896 296.579 C 201.157 297.413,202.340 297.713,206.083 298.145 C 215.314 299.211,214.949 298.280,215.200 321.411 L 215.400 339.823 216.410 341.784 C 219.025 346.865,227.225 346.995,230.000 342.000 L 231.000 340.200 231.200 321.800 C 231.457 298.153,231.046 299.119,241.329 298.010 C 249.370 297.143,251.909 290.131,245.289 287.073 C 243.263 286.137,208.233 285.575,203.492 286.403 M265.161 286.384 C 261.657 287.017,259.621 288.665,258.777 291.554 C 257.881 294.625,258.465 340.370,259.422 341.999 C 262.233 346.784,269.357 346.667,271.799 341.795 C 272.515 340.368,272.626 339.086,272.857 329.600 C 273.116 318.946,273.244 317.755,274.312 316.100 C 276.168 313.221,279.025 316.210,287.561 329.964 C 296.514 344.389,297.776 345.600,303.852 345.600 C 308.263 345.600,310.183 344.565,311.644 341.400 C 312.785 338.927,312.783 293.082,311.641 290.569 C 309.219 285.234,301.443 285.074,299.100 290.311 C 298.376 291.930,298.218 293.288,297.994 299.800 C 297.474 314.963,295.152 314.686,284.576 298.200 C 277.474 287.128,273.715 284.841,265.161 286.384 M113.400 287.179 C 128.077 288.041,134.915 293.251,135.503 304.019 C 136.191 316.603,128.222 324.390,113.404 325.612 C 106.281 326.200,103.531 327.931,103.048 332.129 C 102.136 340.065,101.955 341.069,101.280 341.974 C 98.317 345.943,91.593 345.618,89.423 341.400 C 88.202 339.027,88.129 293.147,89.343 290.706 C 91.167 287.037,96.839 286.206,113.400 287.179 M185.600 287.666 C 188.706 289.065,189.924 291.905,188.437 294.281 C 186.934 296.681,185.904 296.937,176.600 297.222 C 165.654 297.557,163.200 298.615,163.200 303.000 C 163.200 307.232,165.775 308.453,175.400 308.787 C 184.141 309.090,186.791 310.242,186.799 313.740 C 186.806 317.498,184.239 318.663,175.400 318.913 C 165.155 319.203,162.400 320.874,162.400 326.800 C 162.400 332.864,165.066 334.405,176.000 334.661 C 186.700 334.912,188.800 335.755,188.800 339.800 C 188.800 344.610,187.285 345.000,168.600 345.000 L 153.400 345.000 151.620 344.000 C 148.011 341.972,148.200 343.518,148.200 316.000 C 148.200 287.087,147.970 288.103,154.733 287.177 C 159.186 286.567,184.035 286.961,185.600 287.666 M244.200 287.543 C 250.826 290.359,248.347 296.487,240.271 297.258 C 230.526 298.188,230.405 298.477,230.402 320.880 C 230.400 339.396,230.267 340.624,228.026 342.867 C 224.914 345.982,219.367 345.257,217.292 341.465 C 216.674 340.336,216.577 338.241,216.383 322.000 C 216.103 298.474,215.968 298.120,207.000 297.391 C 196.844 296.565,194.757 288.481,204.362 287.177 C 208.301 286.643,242.827 286.960,244.200 287.543 M274.215 287.867 C 277.135 288.862,279.186 291.231,285.003 300.324 C 295.515 316.758,298.304 316.813,298.821 300.600 C 299.181 289.272,300.913 286.418,306.690 287.625 C 311.512 288.633,311.382 287.880,311.510 315.600 L 311.620 339.400 310.710 341.200 C 308.228 346.109,300.034 346.038,295.783 341.071 C 295.002 340.159,292.083 335.720,289.297 331.207 C 279.067 314.637,277.380 312.581,274.707 313.429 C 272.686 314.071,272.247 316.535,272.003 328.600 C 271.792 339.006,271.715 339.913,270.926 341.400 C 268.745 345.506,262.580 345.613,260.214 341.586 C 258.945 339.425,258.940 292.596,260.209 290.400 C 261.970 287.354,268.985 286.085,274.215 287.867 M108.049 297.589 C 102.262 299.005,100.613 310.449,105.677 314.055 C 109.877 317.046,118.326 314.073,119.994 309.017 C 122.176 302.406,115.289 295.818,108.049 297.589 M115.148 299.449 C 121.716 302.722,120.808 311.257,113.622 313.792 C 107.327 316.013,103.175 312.435,103.690 305.233 C 104.134 299.034,109.192 296.481,115.148 299.449 " stroke="none" fill="#8c95a4" fill-rule="evenodd"></path><path id="path5" d="M104.499 51.644 C 98.745 52.602,94.757 54.861,89.390 60.200 C 85.725 63.845,50.001 109.183,47.304 113.612 C 44.418 118.350,46.115 122.872,51.188 123.960 C 52.650 124.274,83.675 124.403,159.120 124.410 C 223.385 124.417,266.546 124.571,268.933 124.803 C 306.289 128.436,310.842 165.857,274.928 174.070 L 271.000 174.969 183.400 175.191 C 86.488 175.437,94.091 175.219,89.030 177.903 C 81.898 181.684,80.332 184.563,62.974 225.800 C 54.917 244.940,42.824 273.560,36.101 289.400 C 17.252 333.807,16.801 334.985,17.345 338.341 C 17.969 342.186,21.661 342.386,26.200 338.821 C 27.080 338.130,46.430 318.964,69.200 296.231 C 112.463 253.037,113.058 252.485,118.124 250.850 C 125.356 248.517,128.659 248.422,203.800 248.409 C 269.760 248.397,275.169 248.303,286.800 246.977 C 347.289 240.076,388.380 199.222,387.093 147.262 C 385.798 94.922,341.043 55.899,277.400 51.616 C 269.937 51.114,107.523 51.140,104.499 51.644 M275.800 54.419 C 339.915 58.292,384.384 97.355,384.384 149.800 C 384.384 196.870,347.716 234.424,293.200 243.185 C 279.590 245.372,281.518 245.321,201.600 245.593 C 120.986 245.868,124.253 245.773,117.466 248.037 C 111.152 250.144,111.650 249.687,68.400 293.007 C 47.390 314.051,29.120 332.045,27.800 332.994 C 23.268 336.254,21.530 335.370,22.587 330.343 C 23.280 327.046,23.954 325.386,39.204 289.400 C 46.289 272.680,57.389 246.400,63.870 231.000 C 70.351 215.600,76.740 200.431,78.068 197.292 C 82.255 187.396,86.916 181.611,92.340 179.582 C 96.319 178.093,100.573 178.021,184.810 178.010 C 269.989 178.000,270.925 177.983,277.558 176.347 C 308.834 168.635,310.891 134.356,280.685 124.216 C 273.107 121.672,281.945 121.865,162.200 121.622 C 42.352 121.378,51.961 121.593,50.224 119.113 C 48.415 116.530,48.733 116.039,69.566 89.200 C 93.756 58.038,96.056 55.809,105.419 54.445 C 108.901 53.937,267.431 53.913,275.800 54.419 M92.481 283.646 C 88.621 284.289,86.085 286.452,85.235 289.825 C 84.535 292.606,84.640 339.742,85.352 342.107 C 86.667 346.477,89.868 348.537,95.400 348.574 C 102.957 348.625,105.580 345.823,106.336 336.893 C 106.869 330.583,107.567 329.978,115.189 329.218 C 143.198 326.424,149.302 291.347,122.949 284.628 C 117.704 283.291,98.361 282.667,92.481 283.646 M152.343 283.608 C 144.329 284.961,144.170 285.606,144.310 316.200 C 144.470 351.264,142.424 348.600,169.200 348.600 C 189.365 348.600,191.218 348.123,192.771 342.528 C 195.110 334.105,190.160 330.839,175.000 330.801 C 168.065 330.784,165.775 329.510,166.628 326.146 C 167.330 323.375,168.257 323.057,176.515 322.755 C 187.796 322.342,190.767 320.484,190.791 313.826 C 190.815 307.381,187.142 304.810,177.346 304.417 C 171.054 304.165,169.460 303.733,170.444 302.547 C 170.766 302.159,171.956 301.998,174.549 301.993 C 182.106 301.979,185.434 301.400,189.408 299.408 C 193.758 297.228,193.864 297.223,197.445 299.038 C 199.823 300.244,201.021 300.564,204.744 300.994 C 212.671 301.907,212.155 300.424,212.400 323.000 C 212.622 343.413,212.625 343.435,215.448 346.079 C 220.155 350.486,229.833 349.212,232.591 343.821 L 233.800 341.459 234.000 323.230 C 234.247 300.744,233.947 301.643,241.400 301.021 C 246.472 300.597,248.223 299.861,251.090 296.946 C 255.000 292.970,255.199 293.983,255.203 317.920 C 255.208 346.316,255.933 348.400,265.814 348.400 C 273.369 348.400,275.231 345.558,275.645 333.400 C 276.159 318.303,277.043 318.384,287.011 334.447 C 294.549 346.594,296.873 348.527,304.000 348.578 C 308.145 348.608,310.603 347.818,312.611 345.811 C 315.434 342.987,315.400 343.353,315.400 315.600 L 315.400 291.000 314.348 288.757 C 312.618 285.067,309.954 283.594,305.040 283.609 C 298.180 283.630,295.766 286.663,295.206 295.967 C 294.572 306.481,293.490 306.415,286.210 295.423 C 279.053 284.618,277.201 283.397,268.000 283.421 C 260.935 283.440,258.878 284.411,255.534 289.310 C 253.800 291.850,253.559 291.871,252.392 289.584 C 251.133 287.116,249.377 285.378,247.103 284.351 L 245.000 283.400 225.053 283.276 C 202.909 283.139,201.307 283.259,197.008 285.383 C 193.509 287.112,193.813 287.112,190.418 285.382 C 188.888 284.602,186.593 283.793,185.318 283.584 C 182.573 283.135,155.028 283.154,152.343 283.608 M115.200 286.398 C 129.846 287.625,136.832 294.161,136.311 306.152 C 135.793 318.078,127.936 325.199,113.952 326.416 C 105.450 327.156,104.247 328.292,103.420 336.360 C 102.598 344.374,98.360 347.600,92.093 344.981 C 87.578 343.095,87.600 343.236,87.600 316.000 C 87.600 289.210,87.594 289.254,91.572 287.198 C 93.790 286.051,106.084 285.634,115.200 286.398 M186.301 286.955 C 189.839 288.479,191.162 291.540,189.541 294.447 C 187.891 297.404,186.700 297.752,177.176 298.060 C 166.611 298.402,164.400 299.240,164.400 302.902 C 164.400 306.792,166.274 307.627,175.794 307.978 C 185.369 308.332,187.597 309.431,187.597 313.800 C 187.597 318.292,185.123 319.505,175.087 319.934 C 165.199 320.356,162.879 321.849,163.308 327.517 C 163.689 332.544,165.913 333.566,177.285 333.942 C 188.128 334.301,190.542 335.545,189.886 340.437 C 189.214 345.442,187.808 345.800,168.800 345.800 C 145.201 345.800,147.204 348.565,147.204 316.000 C 147.204 287.118,147.138 287.384,154.600 286.269 C 158.546 285.679,184.651 286.244,186.301 286.955 M245.289 287.073 C 251.909 290.131,249.370 297.143,241.329 298.010 C 235.958 298.589,235.321 298.750,233.997 299.864 C 231.348 302.093,231.420 301.526,231.200 321.800 L 231.000 340.200 230.000 342.000 C 227.225 346.995,219.025 346.865,216.410 341.784 L 215.400 339.823 215.200 321.411 C 214.949 298.280,215.314 299.211,206.083 298.145 C 197.138 297.112,193.929 291.206,200.293 287.490 C 203.362 285.697,241.546 285.344,245.289 287.073 M274.577 287.076 C 277.428 287.998,279.538 290.345,284.576 298.200 C 295.152 314.686,297.474 314.963,297.994 299.800 C 298.218 293.288,298.376 291.930,299.100 290.311 C 301.443 285.074,309.219 285.234,311.641 290.569 C 312.783 293.082,312.785 338.927,311.644 341.400 C 310.183 344.565,308.263 345.600,303.852 345.600 C 297.776 345.600,296.514 344.389,287.561 329.964 C 279.025 316.210,276.168 313.221,274.312 316.100 C 273.244 317.755,273.116 318.946,272.857 329.600 C 272.626 339.086,272.515 340.368,271.799 341.795 C 269.357 346.667,262.233 346.784,259.422 341.999 C 258.465 340.370,257.881 294.625,258.777 291.554 C 260.205 286.664,267.186 284.686,274.577 287.076 M106.902 299.058 C 104.178 300.401,102.793 305.488,103.989 309.761 C 106.316 318.072,120.342 314.265,119.505 305.550 C 118.991 300.200,111.947 296.571,106.902 299.058 M113.197 301.845 C 118.670 304.035,116.761 311.232,110.720 311.187 C 108.658 311.172,107.809 310.597,107.004 308.672 C 104.987 303.845,108.505 299.968,113.197 301.845 " stroke="none" fill="#a6aeb7" fill-rule="evenodd"></path></g></svg>