<?xml version="1.0" standalone="no"?>
<!DOCTYPE svg PUBLIC "-//W3C//DTD SVG 20010904//EN"
 "http://www.w3.org/TR/2001/REC-SVG-20010904/DTD/svg10.dtd">
<svg version="1.0" xmlns="http://www.w3.org/2000/svg"
 width="225.000000pt" height="225.000000pt" viewBox="0 0 225.000000 225.000000"
 preserveAspectRatio="xMidYMid meet">

<g transform="translate(0.000000,225.000000) scale(0.100000,-0.100000)"
fill="#000000" stroke="none">
<path d="M531 1913 c-17 -15 -85 -98 -151 -183 l-120 -155 653 -5 c707 -5 683
-3 745 -63 98 -95 32 -232 -124 -257 -32 -6 -276 -10 -542 -10 l-483 0 -23
-25 c-13 -14 -43 -71 -66 -128 -23 -56 -99 -235 -168 -397 -68 -162 -131 -311
-139 -330 -11 -26 50 29 244 222 169 169 271 263 295 273 32 13 102 15 450 15
228 0 452 5 498 10 123 15 241 55 326 112 85 57 134 110 175 190 153 302 -14
628 -376 734 -53 16 -122 18 -612 21 l-551 4 -31 -28z"/>
<path d="M500 475 l0 -165 40 0 40 0 0 55 0 55 53 0 c71 0 112 26 127 80 9 35
8 47 -7 78 -23 47 -61 61 -170 61 l-83 1 0 -165z m164 89 c19 -19 21 -58 4
-72 -7 -5 -30 -12 -50 -14 l-38 -4 0 53 0 53 34 0 c19 0 42 -7 50 -16z"/>
<path d="M830 475 l0 -165 120 0 120 0 0 30 0 30 -80 0 -80 0 0 40 0 39 73 3
c70 3 72 4 75 30 3 27 3 27 -70 30 l-73 3 0 30 0 30 78 3 77 3 0 29 0 30 -120
0 -120 0 0 -165z"/>
<path d="M1110 610 c0 -29 1 -30 50 -30 l50 0 0 -135 0 -135 45 0 45 0 0 135
0 135 50 0 c49 0 50 1 50 30 l0 30 -145 0 -145 0 0 -30z"/>
<path d="M1460 475 l0 -165 35 0 34 0 3 112 3 112 69 -112 c68 -111 69 -112
107 -112 l39 0 0 165 0 165 -35 0 -35 0 0 -97 -1 -98 -62 97 -62 98 -47 0 -48
0 0 -165z"/>
</g>
</svg>